<svg width="19" height="16" viewBox="0 0 19 16" fill="none" xmlns="http://www.w3.org/2000/svg">
<path d="M10.8333 0.500015C6.69165 0.500015 3.33331 3.85835 3.33331 8.00002H0.833313L4.07498 11.2417L4.13331 11.3583L7.49998 8.00002H4.99998C4.99998 4.77502 7.60831 2.16668 10.8333 2.16668C14.0583 2.16668 16.6666 4.77502 16.6666 8.00002C16.6666 11.225 14.0583 13.8333 10.8333 13.8333C9.22498 13.8333 7.76665 13.175 6.71665 12.1167L5.53331 13.3C6.89165 14.6583 8.75831 15.5 10.8333 15.5C14.975 15.5 18.3333 12.1417 18.3333 8.00002C18.3333 3.85835 14.975 0.500015 10.8333 0.500015ZM9.99998 4.66668V8.83335H14.3916L14.5833 8.00002H11.25V4.66668H9.99998Z" fill="white"/>
</svg>
