<svg width="18" height="18" viewBox="0 0 18 18" fill="none" xmlns="http://www.w3.org/2000/svg">
<path d="M9.00033 0.666504C4.40033 0.666504 0.666992 4.39984 0.666992 8.99984C0.666992 13.5998 4.40033 17.3332 9.00033 17.3332C13.6003 17.3332 17.3337 13.5998 17.3337 8.99984C17.3337 4.39984 13.6003 0.666504 9.00033 0.666504ZM9.83366 14.8332H8.16699V13.1665H9.83366V14.8332ZM11.5587 8.37484L10.8087 9.1415C10.2087 9.74984 9.83366 10.2498 9.83366 11.4998H8.16699V11.0832C8.16699 10.1665 8.54199 9.33317 9.14199 8.72484L10.1753 7.67484C10.4837 7.37484 10.667 6.95817 10.667 6.49984C10.667 5.58317 9.91699 4.83317 9.00033 4.83317C8.08366 4.83317 7.33366 5.58317 7.33366 6.49984H5.66699C5.66699 4.65817 7.15866 3.1665 9.00033 3.1665C10.842 3.1665 12.3337 4.65817 12.3337 6.49984C12.3337 7.23317 12.0337 7.89984 11.5587 8.37484Z" fill="white"/>
</svg>
