<svg width="18" height="14" viewBox="0 0 18 14" fill="none" xmlns="http://www.w3.org/2000/svg">
<path d="M13.1667 10.3333C12.7084 10.3333 12.3334 9.95835 12.3334 9.50002H5.66669C5.66669 9.95835 5.29169 10.3333 4.83335 10.3333C4.37502 10.3333 4.00002 9.95835 4.00002 9.50002H0.666687V12C0.666687 12.9167 1.41669 13.6667 2.33335 13.6667H15.6667C16.5834 13.6667 17.3334 12.9167 17.3334 12V9.50002H14C14 9.95835 13.625 10.3333 13.1667 10.3333Z" fill="white"/>
<path d="M15.6667 3.66668H13.1667V2.00001C13.1667 1.08334 12.4167 0.333344 11.5 0.333344H6.50002C5.58335 0.333344 4.83335 1.08334 4.83335 2.00001V3.66668H2.33335C1.41669 3.66668 0.666687 4.41668 0.666687 5.33334V8.66668H4.00002V7.83334C4.00002 7.37501 4.37502 7.00001 4.83335 7.00001C5.29169 7.00001 5.66669 7.37501 5.66669 7.83334V8.66668H12.3334V7.83334C12.3334 7.37501 12.7084 7.00001 13.1667 7.00001C13.625 7.00001 14 7.37501 14 7.83334V8.66668H17.3334V5.33334C17.3334 4.41668 16.5834 3.66668 15.6667 3.66668ZM11.5 3.66668H6.50002V2.00001H11.5V3.66668Z" fill="white"/>
</svg>
