<svg width="18" height="17" viewBox="0 0 18 17" fill="none" xmlns="http://www.w3.org/2000/svg">
<path fill-rule="evenodd" clip-rule="evenodd" d="M0.66687 3.00002C0.66687 1.61931 1.78616 0.500015 3.16687 0.500015H14.8335C16.2143 0.500015 17.3335 1.61931 17.3335 3.00002V11.3333C17.3335 12.7141 16.2143 13.8333 14.8335 13.8333H5.11131L2.33354 15.9167C1.64684 16.4317 0.66687 15.9418 0.66687 15.0833V3.00002ZM4.83354 5.50002C4.83354 5.03978 5.20664 4.66668 5.66687 4.66668H12.3335C12.7938 4.66668 13.1669 5.03978 13.1669 5.50002C13.1669 5.96025 12.7938 6.33335 12.3335 6.33335H5.66687C5.20664 6.33335 4.83354 5.96025 4.83354 5.50002ZM5.66687 8.00002C5.20664 8.00002 4.83354 8.3731 4.83354 8.83335C4.83354 9.2936 5.20664 9.66668 5.66687 9.66668H8.16687C8.62712 9.66668 9.0002 9.2936 9.0002 8.83335C9.0002 8.3731 8.62712 8.00002 8.16687 8.00002H5.66687Z" fill="white"/>
</svg>
