<svg width="17" height="20" viewBox="0 0 17 20" fill="none" xmlns="http://www.w3.org/2000/svg">
<path d="M8.99998 5.00001C12.225 5.00001 14.8333 7.60834 14.8333 10.8333C14.8333 11.7667 14.6083 12.65 14.2166 13.4333L15.4416 14.6583C16.1083 13.5417 16.5 12.2333 16.5 10.8333C16.5 9.06668 15.8833 7.44168 14.8583 6.15834L16.0416 4.97501C15.6833 4.55001 15.2916 4.15001 14.8666 3.80001L13.6833 4.98334C12.3916 3.95001 10.7666 3.33334 8.99998 3.33334C7.59998 3.33334 6.29165 3.72501 5.17498 4.39168L6.39998 5.61668C7.18331 5.22501 8.06665 5.00001 8.99998 5.00001ZM8.16665 6.66668V7.38334L9.83331 9.05001V6.66668H8.16665ZM6.49998 0.833344H11.5V2.50001H6.49998V0.833344ZM1.63331 3.21668L0.458313 4.39168L2.74998 6.68334C1.96665 7.87501 1.49998 9.30001 1.49998 10.8333C1.49998 14.975 4.84998 18.3333 8.99998 18.3333C10.5333 18.3333 11.9583 17.875 13.15 17.0833L15.2333 19.1667L16.4083 17.9917L1.63331 3.21668ZM8.99998 16.6667C5.77498 16.6667 3.16665 14.0583 3.16665 10.8333C3.16665 9.75834 3.45831 8.75834 3.96665 7.90001L11.9416 15.875C11.075 16.375 10.075 16.6667 8.99998 16.6667Z" fill="white"/>
</svg>
