<svg width="18" height="18" viewBox="0 0 18 18" fill="none" xmlns="http://www.w3.org/2000/svg">
<path d="M12.5334 5.45833C11.5584 4.48333 10.2834 3.99166 9.00008 3.99166V8.99166L5.46675 12.525C7.41675 14.475 10.5834 14.475 12.5417 12.525C14.4917 10.575 14.4917 7.40833 12.5334 5.45833ZM9.00008 0.658325C4.40008 0.658325 0.666748 4.39166 0.666748 8.99166C0.666748 13.5917 4.40008 17.325 9.00008 17.325C13.6001 17.325 17.3334 13.5917 17.3334 8.99166C17.3334 4.39166 13.6001 0.658325 9.00008 0.658325ZM9.00008 15.6583C5.31675 15.6583 2.33341 12.675 2.33341 8.99166C2.33341 5.30832 5.31675 2.32499 9.00008 2.32499C12.6834 2.32499 15.6667 5.30832 15.6667 8.99166C15.6667 12.675 12.6834 15.6583 9.00008 15.6583Z" fill="white"/>
</svg>
