<svg width="16" height="17" viewBox="0 0 16 17" fill="none" xmlns="http://www.w3.org/2000/svg">
<g clip-path="url(#clip0_91_1479)">
<path d="M8.00001 4.50001C7.26667 4.50001 6.66667 3.90001 6.66667 3.16668C6.66667 2.43334 7.26667 1.83334 8.00001 1.83334C8.73334 1.83334 9.33334 2.43334 9.33334 3.16668C9.33334 3.90001 8.73334 4.50001 8.00001 4.50001ZM11.3333 1.83334H12.6667V2.10001C12.6 3.56668 12.1333 4.70001 11.1333 5.50001C10.8 5.76668 10.4 5.96668 10 6.10001V15.1667H8.66667V11.1667H7.33334V15.1667H6.00001V7.23334C5.80001 7.30001 5.66667 7.36668 5.6 7.43334C5.00001 7.90001 4.67334 8.50001 4.66667 9.50001V9.83334H3.33334V9.50001C3.33334 8.16668 3.80667 7.10668 4.74001 6.30668C5.47334 5.70668 6.66667 5.16668 8.00001 5.16668C9.33334 5.16668 9.78667 4.86001 10.32 4.46001C10.9867 3.92668 11.3333 3.16668 11.3333 2.16668V1.83334ZM2.66667 11.1667H4.66667V15.1667H2.66667V11.1667Z" fill="#6E7176"/>
</g>
<defs>
<clipPath id="clip0_91_1479">
<rect width="16" height="16" fill="white" transform="translate(0 0.5)"/>
</clipPath>
</defs>
</svg>
